<svg width="76" height="72" viewBox="0 0 76 72" fill="none" xmlns="http://www.w3.org/2000/svg">
  <ellipse cx="37.9963" cy="36" rx="37.7107" ry="36" fill="#808080" />
  <path
    d="M57.379 18.625H51.231L48.2459 14.2516C47.9821 13.866 47.6246 13.5499 47.2053 13.3316C46.786 13.1132 46.3178 12.9993 45.8425 13H30.4605C29.9851 12.9993 29.5169 13.1132 29.0976 13.3316C28.6783 13.5499 28.3208 13.866 28.057 14.2516L25.0695 18.625H18.924C17.1392 18.625 15.4274 19.3164 14.1654 20.5471C12.9033 21.7778 12.1943 23.447 12.1943 25.1875V51.4375C12.1943 53.178 12.9033 54.8472 14.1654 56.0779C15.4274 57.3086 17.1392 58 18.924 58H57.379C58.2627 58 59.1378 57.8303 59.9543 57.5005C60.7707 57.1707 61.5126 56.6873 62.1375 56.0779C62.7624 55.4685 63.2581 54.7451 63.5963 53.9489C63.9345 53.1527 64.1086 52.2993 64.1086 51.4375V25.1875C64.1086 24.3257 63.9345 23.4723 63.5963 22.6761C63.2581 21.8799 62.7624 21.1565 62.1375 20.5471C61.5126 19.9377 60.7707 19.4543 59.9543 19.1245C59.1378 18.7947 58.2627 18.625 57.379 18.625ZM58.3403 51.4375C58.3403 51.6861 58.239 51.9246 58.0587 52.1004C57.8785 52.2762 57.6339 52.375 57.379 52.375H18.924C18.669 52.375 18.4245 52.2762 18.2442 52.1004C18.0639 51.9246 17.9626 51.6861 17.9626 51.4375V25.1875C17.9626 24.9389 18.0639 24.7004 18.2442 24.5246C18.4245 24.3488 18.669 24.25 18.924 24.25H26.615C27.0903 24.2507 27.5585 24.1368 27.9778 23.9184C28.3971 23.7001 28.7546 23.384 29.0184 22.9984L32.0035 18.625H44.297L47.2845 22.9984C47.5483 23.384 47.9058 23.7001 48.3251 23.9184C48.7444 24.1368 49.2126 24.2507 49.688 24.25H57.379C57.6339 24.25 57.8785 24.3488 58.0587 24.5246C58.239 24.7004 58.3403 24.9389 58.3403 25.1875V51.4375ZM38.1515 26.125C35.8698 26.125 33.6393 26.7848 31.7421 28.021C29.845 29.2571 28.3663 31.0141 27.4931 33.0698C26.62 35.1255 26.3915 37.3875 26.8366 39.5698C27.2818 41.7521 28.3805 43.7566 29.9939 45.33C31.6073 46.9033 33.6629 47.9748 35.9008 48.4088C38.1387 48.8429 40.4583 48.6201 42.5663 47.7687C44.6743 46.9172 46.4761 45.4752 47.7437 43.6252C49.0113 41.7751 49.688 39.6 49.688 37.375C49.6848 34.3923 48.4683 31.5326 46.3055 29.4235C44.1427 27.3144 41.2101 26.1281 38.1515 26.125ZM38.1515 43C37.0106 43 35.8954 42.6701 34.9468 42.052C33.9982 41.4339 33.2589 40.5554 32.8223 39.5276C32.3857 38.4998 32.2715 37.3688 32.494 36.2776C32.7166 35.1865 33.266 34.1842 34.0727 33.3975C34.8794 32.6109 35.9072 32.0751 37.0261 31.8581C38.1451 31.641 39.3049 31.7524 40.3589 32.1782C41.4129 32.6039 42.3138 33.3249 42.9476 34.2499C43.5814 35.1749 43.9197 36.2625 43.9197 37.375C43.9197 38.8668 43.312 40.2976 42.2302 41.3525C41.1485 42.4074 39.6813 43 38.1515 43Z"
    fill="#000002" />
</svg>
  