<svg width="75" height="80" viewBox="0 0 75 80" fill="none" xmlns="http://www.w3.org/2000/svg">
  <path
    d="M0 10C0 4.47715 4.47715 0 10 0H65C70.5228 0 75 4.47715 75 10V70C75 75.5228 70.5228 80 65 80H10C4.47715 80 0 75.5228 0 70V10Z"
    fill="#D9D9D9" />
  <path
    d="M37.5 16C34.5453 16 31.6194 16.6074 28.8896 17.7875C26.1598 18.9676 23.6794 20.6973 21.5901 22.8779C17.3705 27.2817 15 33.2545 15 39.4825C15 49.8617 21.4575 58.6676 30.39 61.7908C31.515 61.9786 31.875 61.2507 31.875 60.6167V56.6481C25.6425 58.0571 24.315 53.5015 24.315 53.5015C23.28 50.7775 21.8175 50.0496 21.8175 50.0496C19.77 48.5936 21.975 48.6406 21.975 48.6406C24.225 48.805 25.4175 51.0593 25.4175 51.0593C27.375 54.6286 30.6825 53.5719 31.965 53.0083C32.1675 51.482 32.7525 50.4488 33.3825 49.8617C28.3875 49.2746 23.145 47.2551 23.145 38.3083C23.145 35.7018 24 33.6118 25.4625 31.9446C25.2375 31.3575 24.45 28.9153 25.6875 25.7452C25.6875 25.7452 27.5775 25.1112 31.875 28.1404C33.6525 27.6238 35.5875 27.3655 37.5 27.3655C39.4125 27.3655 41.3475 27.6238 43.125 28.1404C47.4225 25.1112 49.3125 25.7452 49.3125 25.7452C50.55 28.9153 49.7625 31.3575 49.5375 31.9446C51 33.6118 51.855 35.7018 51.855 38.3083C51.855 47.2786 46.59 49.2512 41.5725 49.8382C42.3825 50.5662 43.125 51.9986 43.125 54.1825V60.6167C43.125 61.2507 43.485 62.0021 44.6325 61.7908C53.565 58.6441 60 49.8617 60 39.4825C60 36.3987 59.418 33.3451 58.2873 30.4961C57.1566 27.6471 55.4992 25.0584 53.4099 22.8779C51.3206 20.6973 48.8402 18.9676 46.1104 17.7875C43.3806 16.6074 40.4547 16 37.5 16Z"
    fill="#404040" />
</svg>