<svg width="75" height="80" viewBox="0 0 75 80" fill="none" xmlns="http://www.w3.org/2000/svg">
  <rect width="75" height="80" rx="10" fill="#D9D9D9" />
  <path fill-rule="evenodd" clip-rule="evenodd"
    d="M52.6667 17C54.6116 17 56.4768 17.7726 57.8521 19.1479C59.2274 20.5232 60 22.3884 60 24.3333V53.6667C60 55.6116 59.2274 57.4768 57.8521 58.8521C56.4768 60.2274 54.6116 61 52.6667 61H23.3333C21.3884 61 19.5232 60.2274 18.1479 58.8521C16.7726 57.4768 16 55.6116 16 53.6667V24.3333C16 22.3884 16.7726 20.5232 18.1479 19.1479C19.5232 17.7726 21.3884 17 23.3333 17H52.6667ZM28.2222 34.1111C27.5739 34.1111 26.9522 34.3687 26.4937 34.8271C26.0353 35.2855 25.7778 35.9072 25.7778 36.5556V48.7778C25.7778 49.4261 26.0353 50.0478 26.4937 50.5063C26.9522 50.9647 27.5739 51.2222 28.2222 51.2222C28.8705 51.2222 29.4923 50.9647 29.9507 50.5063C30.4091 50.0478 30.6667 49.4261 30.6667 48.7778V36.5556C30.6667 35.9072 30.4091 35.2855 29.9507 34.8271C29.4923 34.3687 28.8705 34.1111 28.2222 34.1111ZM35.5556 31.6667C34.9072 31.6667 34.2855 31.9242 33.8271 32.3826C33.3687 32.8411 33.1111 33.4628 33.1111 34.1111V48.7778C33.1111 49.4261 33.3687 50.0478 33.8271 50.5063C34.2855 50.9647 34.9072 51.2222 35.5556 51.2222C36.2039 51.2222 36.8256 50.9647 37.284 50.5063C37.7425 50.0478 38 49.4261 38 48.7778V39.8311C38.7456 38.9902 40.0044 38.0027 41.4051 37.4038C42.2191 37.0567 43.4438 36.9149 44.2944 37.1838C44.5766 37.2554 44.828 37.4166 45.0107 37.6433C45.1378 37.8144 45.3333 38.1958 45.3333 39V48.7778C45.3333 49.4261 45.5909 50.0478 46.0493 50.5063C46.5077 50.9647 47.1295 51.2222 47.7778 51.2222C48.4261 51.2222 49.0478 50.9647 49.5063 50.5063C49.9647 50.0478 50.2222 49.4261 50.2222 48.7778V39C50.2222 37.3622 49.8067 35.9053 48.9413 34.7369C48.1451 33.6774 47.0307 32.9004 45.7611 32.5198C43.5562 31.828 41.1142 32.2118 39.4838 32.9109C38.9618 33.1354 38.4533 33.39 37.9609 33.6736C37.8584 33.1103 37.5615 32.6009 37.1219 32.2342C36.6824 31.8674 36.128 31.6666 35.5556 31.6667ZM28.2222 26.7778C27.5739 26.7778 26.9522 27.0353 26.4937 27.4937C26.0353 27.9522 25.7778 28.5739 25.7778 29.2222C25.7778 29.8705 26.0353 30.4923 26.4937 30.9507C26.9522 31.4091 27.5739 31.6667 28.2222 31.6667C28.8705 31.6667 29.4923 31.4091 29.9507 30.9507C30.4091 30.4923 30.6667 29.8705 30.6667 29.2222C30.6667 28.5739 30.4091 27.9522 29.9507 27.4937C29.4923 27.0353 28.8705 26.7778 28.2222 26.7778Z"
    fill="#404040" />
</svg>