<svg width="190" height="197" viewBox="0 0 190 197" fill="none" xmlns="http://www.w3.org/2000/svg">
  <path
    d="M132.988 78.8C132.988 89.2495 128.994 99.2711 121.885 106.66C114.775 114.049 105.133 118.2 95.0789 118.2C85.0247 118.2 75.3824 114.049 68.273 106.66C61.1637 99.2711 57.1697 89.2495 57.1697 78.8C57.1697 68.3505 61.1637 58.3289 68.273 50.94C75.3824 43.5511 85.0247 39.4 95.0789 39.4C105.133 39.4 114.775 43.5511 121.885 50.94C128.994 58.3289 132.988 68.3505 132.988 78.8Z"
    fill="black" />
  <path fill-rule="evenodd" clip-rule="evenodd"
    d="M91.2121 196.921C40.665 194.813 0.305908 151.552 0.305908 98.5C0.305908 44.0985 42.7358 0 95.0789 0C147.422 0 189.852 44.0985 189.852 98.5C189.852 152.902 147.422 197 95.0789 197H93.7805C92.9212 197 92.0651 196.974 91.2121 196.921ZM34.2631 160.654C33.5545 158.539 33.3133 156.285 33.5574 154.06C33.8015 151.835 34.5247 149.695 35.6732 147.801C36.8217 145.906 38.3661 144.304 40.1917 143.114C42.0173 141.925 44.0773 141.178 46.2187 140.929C83.1612 136.679 107.224 137.063 143.986 141.018C146.131 141.25 148.196 141.987 150.024 143.174C151.853 144.361 153.397 145.966 154.538 147.867C155.68 149.768 156.389 151.914 156.612 154.143C156.834 156.371 156.565 158.623 155.824 160.727C171.58 144.16 180.404 121.795 180.375 98.5C180.375 49.5406 142.186 9.85 95.0789 9.85C47.972 9.85 9.7832 49.5406 9.7832 98.5C9.7832 122.711 19.1231 144.657 34.2631 160.654Z"
    fill="black" />
</svg>
  