<svg width="27" height="27" viewBox="0 0 27 27" fill="none" xmlns="http://www.w3.org/2000/svg">
  <path fill-rule="evenodd" clip-rule="evenodd"
    d="M3.18112 0.861889C3.47639 0.567064 3.83095 0.338356 4.22129 0.190922C4.61164 0.0434881 5.02886 -0.0193055 5.44531 0.00670261C5.86176 0.0327107 6.26792 0.146927 6.63689 0.341781C7.00586 0.536636 7.3292 0.80768 7.5855 1.13695L10.6146 5.02833C11.1697 5.74214 11.3655 6.67195 11.1461 7.54945L10.2231 11.2451C10.1757 11.4365 10.1784 11.6369 10.231 11.827C10.2836 12.017 10.3843 12.1903 10.5234 12.3301L14.6696 16.4763C14.8096 16.6157 14.9832 16.7166 15.1736 16.7692C15.3639 16.8218 15.5647 16.8244 15.7564 16.7767L19.4503 15.8536C19.8834 15.746 20.3352 15.7379 20.7719 15.83C21.2086 15.922 21.6187 16.1119 21.9714 16.3852L25.8628 19.4126C27.2617 20.501 27.39 22.5682 26.1379 23.8186L24.393 25.5635C23.1442 26.8123 21.2779 27.3607 19.5381 26.7481C15.0842 25.1831 11.0407 22.6336 7.70868 19.2894C4.36469 15.9578 1.81518 11.915 0.249934 7.4617C-0.360941 5.72358 0.187497 3.85551 1.43625 2.60676L3.18112 0.861889Z"
    fill="#CCCCCC" />
</svg>
  