<svg width="75" height="80" viewBox="0 0 75 80" fill="none" xmlns="http://www.w3.org/2000/svg">
  <path
    d="M0 10C0 4.47715 4.47715 0 10 0H65C70.5229 0 75 4.47715 75 10V70C75 75.5229 70.5229 80 65 80H10C4.47715 80 0 75.5229 0 70V10Z"
    fill="#D9D9D9" />
  <path fill-rule="evenodd" clip-rule="evenodd"
    d="M21.1849 19.403C21.666 18.9226 22.2438 18.5498 22.8799 18.3096C23.516 18.0693 24.1959 17.9669 24.8745 18.0093C25.5532 18.0517 26.2151 18.2379 26.8163 18.5554C27.4176 18.873 27.9445 19.3147 28.3622 19.8513L33.2983 26.1931C34.203 27.3564 34.522 28.8717 34.1645 30.3018L32.6603 36.3246C32.583 36.6365 32.5875 36.9631 32.6733 37.2729C32.759 37.5826 32.9231 37.865 33.1498 38.0929L39.9063 44.8499C40.1344 45.0771 40.4173 45.2415 40.7275 45.3272C41.0378 45.413 41.3649 45.4172 41.6772 45.3395L47.6968 43.8352C48.4025 43.6597 49.1389 43.6465 49.8504 43.7966C50.562 43.9466 51.2303 44.256 51.8052 44.7014L58.1465 49.6352C60.4262 51.409 60.6351 54.7779 58.5947 56.8157L55.7513 59.6594C53.7164 61.6945 50.675 62.5883 47.8398 61.59C40.5819 59.0395 33.9927 54.8845 28.5629 49.4344C23.1136 44.005 18.959 37.4163 16.4083 30.1588C15.4128 27.3261 16.3065 24.2818 18.3415 22.2467L21.1849 19.403Z"
    fill="#404040" />
</svg>